<svg id="_x33_0" enable-background="new 0 0 58 62" height="512" viewBox="0 0 58 62" width="512" xmlns="http://www.w3.org/2000/svg"><g><g><g><path d="m57 45v14h-7l1-2 1-2-2-3 2-3-1-2-1-2z" fill="#b4dd7f"/></g><g><path d="m12 3h-10c-.55 0-1 .45-1 1v16c0 .55.45 1 1 1h9.58c.34-1.14.82-2.22 1.42-3.22v-12.78-1c0-.55-.45-1-1-1z" fill="#ef7385"/></g><g><path d="m29 57h-2c-.55 0-1.05-.22-1.41-.59-.37-.36-.59-.86-.59-1.41 0-1.1.9-2 2-2h-2c-.55 0-1.05-.22-1.41-.59-.37-.36-.59-.86-.59-1.41 0-1.1.9-2 2-2h2c-1.1 0-2-.9-2-2 0-.55.22-1.05.59-1.41.36-.37.86-.59 1.41-.59h8l-1.62-2.43c-.25-.37-.38-.81-.38-1.25v-.07c0-1.24 1.01-2.25 2.25-2.25.49 0 .96.16 1.35.45l1.83 1.38c1.04.77 2.23 1.3 3.49 1.55 1.98.4 3.75 1.52 4.97 3.13l1.11 1.49h3l1 2-2 3 2 3-1 2h-3c-.94 1.26-2.16 2.26-3.53 2.94-1.37.69-2.89 1.06-4.47 1.06h-11c-1.1 0-2-.9-2-2 0-.55.22-1.05.59-1.41.36-.37.86-.59 1.41-.59z" fill="#f0d0b4"/></g><g><path d="m46.41 9.59c.37.36.59.86.59 1.41 0 1.1-.9 2-2 2h-1-9v-2.59c0-.49-.11-.97-.31-1.41h9.31 1c.55 0 1.05.22 1.41.59z" fill="#f0d0b4"/></g><g><path d="m36.49 17c-.45-.64-.95-1.24-1.49-1.8v-2.2h9 1c.55 0 1.05.22 1.41.59.37.36.59.86.59 1.41 0 1.1-.9 2-2 2h-2-3z" fill="#f0d0b4"/></g><g><path d="m35 15.2c-2.55-2.59-6.09-4.2-10-4.2-5.09 0-9.55 2.72-12 6.78v-12.78h4c2.56-2.56 6.03-4 9.66-4h9.34c.55 0 1 .45 1 1 0 1.66-1.34 3-3 3h11c1.1 0 2 .9 2 2 0 .55-.22 1.05-.59 1.41-.36.37-.86.59-1.41.59h-1-9.31c.2.44.31.92.31 1.41v2.59z" fill="#f0d0b4"/></g><g><path d="m44.41 17.59c.37.36.59.86.59 1.41 0 1.1-.9 2-2 2h-4.58c-.43-1.44-1.09-2.79-1.93-4h3.51 3c.55 0 1.05.22 1.41.59z" fill="#f0d0b4"/></g><g><path d="m13 17.78c2.45-4.06 6.91-6.78 12-6.78 3.91 0 7.45 1.61 10 4.2.54.56 1.04 1.16 1.49 1.8.84 1.21 1.5 2.56 1.93 4 .38 1.27.58 2.61.58 4 0 7.73-6.27 14-14 14s-14-6.27-14-14c0-1.39.2-2.73.58-4 .34-1.14.82-2.22 1.42-3.22z" fill="#ffc729"/></g><g><circle cx="25" cy="25" fill="#fcd770" r="10"/></g></g><g><path d="m26 32v-2h2v-3c0-1.654-1.346-3-3-3-.552 0-1-.448-1-1v-1h1c.552 0 1 .448 1 1v1h2v-1c0-1.302-.839-2.402-2-2.816v-2.184h-2v2h-2v3c0 1.654 1.346 3 3 3 .552 0 1 .448 1 1v1h-1c-.552 0-1-.448-1-1v-1h-2v1c0 1.302.839 2.402 2 2.816v2.184z"/><path d="m36 25c0-6.065-4.935-11-11-11s-11 4.935-11 11 4.935 11 11 11 11-4.935 11-11zm-20 0c0-4.963 4.037-9 9-9s9 4.037 9 9-4.037 9-9 9-9-4.037-9-9z"/><path d="m40 25c0-1.027-.105-2.03-.302-3h3.302c1.654 0 3-1.346 3-3 0-.395-.081-.77-.22-1.116 1.275-.346 2.22-1.501 2.22-2.884 0-.771-.301-1.468-.78-2 .48-.532.78-1.229.78-2s-.301-1.468-.78-2c.479-.532.78-1.229.78-2 0-1.654-1.346-3-3-3h-7.556c.344-.591.556-1.268.556-2 0-1.103-.897-2-2-2h-9.343c-3.775 0-7.332 1.417-10.063 4h-2.594c0-1.103-.897-2-2-2h-10c-1.103 0-2 .897-2 2v16c0 1.103.897 2 2 2h8.302c-.197.97-.302 1.973-.302 3 0 8.271 6.729 15 15 15s15-6.729 15-15zm3-5h-3.875c-.245-.69-.529-1.361-.868-2h1.743 3c.552 0 1 .448 1 1s-.448 1-1 1zm2-4h-2-3-3.028c-.305-.404-.628-.792-.972-1.164v-.836h8 1c.552 0 1 .448 1 1s-.448 1-1 1zm1-5c0 .552-.448 1-1 1h-1-8v-1.586c0-.141-.027-.276-.04-.414h8.04 1c.552 0 1 .448 1 1zm-28.586-5 .293-.293c2.391-2.391 5.569-3.707 8.95-3.707h9.343c0 1.103-.897 2-2 2h-3.618l-.276.553c-.525 1.051-1.429 1.834-2.543 2.206l-.879.293.633 1.896.879-.293c1.418-.472 2.602-1.405 3.387-2.655h2.417 11c.552 0 1 .448 1 1s-.448 1-1 1h-1-8.721c-.165-.251-.354-.489-.572-.707l-1.414 1.414c.456.456.707 1.063.707 1.707v2.614c-2.51-1.892-5.621-3.028-9-3.028-4.348 0-8.258 1.871-11 4.836v-8.836zm-15.414-2h4v5.586c0 .87.25 1.702.717 2.414-.467.712-.717 1.544-.717 2.414v5.586h-4zm6 16v-5.586c0-.645.251-1.251.707-1.707l.707-.707-.707-.707c-.456-.456-.707-1.063-.707-1.707v-5.586h4v13.548c-.447.776-.821 1.596-1.125 2.452zm4 5c0-7.168 5.832-13 13-13s13 5.832 13 13-5.832 13-13 13-13-5.832-13-13z"/><path d="m48.382 44 1 2h-.882l-.814-1.087c-1.364-1.818-3.343-3.064-5.57-3.51-1.11-.223-2.176-.698-3.081-1.377l-1.835-1.376c-.558-.419-1.251-.65-1.95-.65-1.792 0-3.25 1.458-3.25 3.318 0 .644.188 1.267.546 1.803l.586.879h-6.132c-1.654 0-3 1.346-3 3 0 .395.081.77.22 1.116-1.275.345-2.22 1.501-2.22 2.884s.945 2.539 2.22 2.884c-.139.346-.22.721-.22 1.116 0 1.383.945 2.539 2.22 2.884-.139.346-.22.721-.22 1.116 0 1.654 1.346 3 3 3h11c3.273 0 6.408-1.486 8.485-4h.896l-1 2h9.619v-16zm-.882 12-.3.399c-1.691 2.255-4.383 3.601-7.2 3.601h-11c-.552 0-1-.448-1-1s.448-1 1-1h4 1v-2h-1-4-2c-.552 0-1-.448-1-1s.448-1 1-1h3 4v-2h-4-3-2c-.552 0-1-.448-1-1s.448-1 1-1h2 2 5v-2h-5-2c-.552 0-1-.448-1-1s.448-1 1-1h9.868l-2.658-3.988c-.138-.206-.21-.447-.21-.762 0-.689.561-1.25 1.25-1.25.269 0 .534.089.75.25l1.835 1.376c1.143.856 2.486 1.458 3.888 1.738 1.745.349 3.295 1.325 4.363 2.749l1.414 1.887h2.882l.464.928-2.048 3.072 2.048 3.072-.464.928zm8.5 2h-4.382l1.536-3.072-1.952-2.928 1.952-2.928-1.536-3.072h4.382z"/><path d="m48 26v2h2v2h2v-2h2v-2h-2v-2h-2v2z"/><path d="m52 40v-2h2v-2h-2v-2h-2v2h-2v2h2v2z"/><path d="m4 28h-2v2h-2v2h2v2h2v-2h2v-2h-2z"/><path d="m4 38h-2v2h-2v2h2v2h2v-2h2v-2h-2z"/><path d="m4 48h-2v2h-2v2h2v2h2v-2h2v-2h-2z"/></g></g></svg>